<?xml version="1.0" encoding="utf-8"?>
<!-- Generator: Adobe Illustrator 25.4.1, SVG Export Plug-In . SVG Version: 6.00 Build 0)  -->
<svg version="1.1" id="Layer_1" xmlns="http://www.w3.org/2000/svg" xmlns:xlink="http://www.w3.org/1999/xlink" x="0px" y="0px"
	 viewBox="0 0 2000 2000" style="enable-background:new 0 0 2000 2000;" xml:space="preserve">
<style type="text/css">
	.st0{fill:url(#SVGID_1_);}
	.st1{fill:url(#SVGID_00000163052101896953663130000018414236361553421204_);}
	.st2{fill:#2E58A6;}
</style>
<radialGradient id="SVGID_1_" cx="944.3964" cy="1086.6715" r="1088.1934" gradientTransform="matrix(0.9603 -0.279 0.279 0.9603 -228.886 303.5149)" gradientUnits="userSpaceOnUse">
	<stop  offset="0" style="stop-color:#0070F0"/>
	<stop  offset="1" style="stop-color:#085EB5"/>
</radialGradient>
<path class="st0" d="M503.83,470.15c-82.62,123.05,11.63,211.69-45.19,357c-80.95,207.03-338.45,196.41-353.68,345.65
	c-9,88.22,80.4,97.59,175.19,291.81c88.47,181.28,44.21,242.05,130.75,351.11c14.57,18.36,135.25,166.32,293.87,164.26
	c206.96-2.7,227.09-257.48,476.68-315.99c200.7-47.05,304.65,90.29,461.25,2.17c69.18-38.93,149.59-122.4,160.3-224.45
	c18.23-173.68-182.83-235.59-188.16-469c-1.78-77.78,18.07-179.52,22.18-200.61c21.57-110.55,39.26-119.21,49.9-198.02
	c10.79-79.91,26.42-195.78-41.98-277.54c-50.53-60.41-134.39-87.21-205.57-84.19c-158.62,6.73-174.37,158.08-333.99,187.33
	c-152.09,27.88-203.18-97.42-376.98-65.52C704.67,338.51,574.49,364.91,503.83,470.15z"/>
<radialGradient id="SVGID_00000077325370369759684870000010928726110476222396_" cx="1008.6653" cy="1096.0533" r="1088.1934" gradientUnits="userSpaceOnUse">
	<stop  offset="0" style="stop-color:#FDFDFD"/>
	<stop  offset="1" style="stop-color:#F1F1F1"/>
</radialGradient>
<path style="fill:url(#SVGID_00000077325370369759684870000010928726110476222396_);" d="M721.39,373.85
	c-113.67,95.11-47.9,206.52-143.01,330.21C442.87,880.27,198.56,798.23,142.3,937.29c-33.26,82.2,49.98,116.15,86.8,329.1
	c34.37,198.77-25.08,244.77,27.59,373.65c8.87,21.7,83.47,197.45,236.37,239.73c199.49,55.16,289.92-183.89,545.92-170.43
	c205.86,10.82,267.36,171.71,442.32,130.78c77.3-18.08,177.8-75.8,216.56-170.81c65.96-161.7-109.84-277.24-49.83-502.88
	c20-75.19,67.44-167.34,77.28-186.45c51.56-100.15,70.97-103.52,103.17-176.24c32.66-73.73,80-180.63,37.13-278.23
	c-31.67-72.11-104.72-121.24-173.92-138.21c-154.2-37.8-211.56,103.14-372.99,86.7c-153.83-15.67-167.92-150.24-343.72-168.1
	C950.98,303.47,818.6,292.5,721.39,373.85z"/>
<g>
	<g>
		<path class="st2" d="M1709.46,495.81l-37.24,12.41c-48.53,15.8-54.17,25.96-54.17,63.2v64.33h-41.76l-14.67-47.4
			c-13.54-45.14-16.93-65.46-16.93-79c0-32.73,22.57-53.04,90.28-74.48l62.07-20.31c41.76-13.54,64.33-40.63,64.33-79
			c0-55.3-45.14-113.98-91.41-155.74l123.01,80.13l-208.78-37.24c-66.58-12.41-80.13-32.73-80.13-59.81
			c0-33.86,20.31-50.78,60.94-60.94c93.67,9.03,256.18,104.95,256.18,251.66C1821.18,423.59,1785.07,470.99,1709.46,495.81z
			 M1525.5,818.58c0-38.37,31.6-72.23,71.1-72.23c39.5,0,71.1,33.86,71.1,72.23c0,38.37-31.6,71.1-71.1,71.1
			C1557.1,889.68,1525.5,856.95,1525.5,818.58z"/>
	</g>
</g>
</svg>
